<?xml version="1.0" encoding="utf-8"?>
<!-- Generator: Adobe Illustrator 25.0.0, SVG Export Plug-In . SVG Version: 6.00 Build 0)  -->
<svg version="1.1" xmlns="http://www.w3.org/2000/svg" xmlns:xlink="http://www.w3.org/1999/xlink" x="0px" y="0px"
	 viewBox="0 0 10 10" style="enable-background:new 0 0 10 10;" xml:space="preserve">
<style type="text/css">
	.st0{fill:#FFFFFF;stroke:#000000;stroke-width:0.5;stroke-miterlimit:10;}
	.st1{fill:#EA6254;}
	.st2{fill:#FFFFFF;}
</style>
<g id="Layer_2">
	<path class="st0" d="M6.4,1.8C5.5,1.5,5.5,1.1,4.9,1.1C4.5,1,4.4,1.2,3,1.9c-1.4,0.8-1.5,0.7-1.7,1C0.9,3.7,1.9,4.3,1.7,5.8
		c-0.1,1.1-0.8,1.3-0.6,2C1.3,8.6,2.8,9,4,8.9c0.7-0.1,0.7-0.3,1.9-0.6c2-0.6,2.6-0.2,2.9-0.7C9.3,6.9,8.2,6.2,8.2,4
		c0-0.9,0.2-1.5-0.3-1.9C7.6,1.8,7.3,2,6.4,1.8z"/>
</g>
<g id="Layer_1">
	<g id="Layer_3">
	</g>
	<path d="M6.6,5.5c-0.1,0-0.2-0.1-0.2-0.1C6.4,5,6.4,4.6,6.2,4.2c0.3-0.1,0.2-0.3,0-0.4c-0.1-0.3-0.1-0.6-0.2-1c0,0,0,0,0,0
		c0-0.1,0-0.1,0.1-0.1c0,0,0,0,0,0c0.2-0.4-0.3-0.4-0.6-0.4C5.3,2.4,4.9,2.4,4.7,2.6C4.5,2.9,4.7,3.1,5,3c0,0.3,0,0.6,0.1,0.9
		c0,0.1,0,0.1,0,0.2c-0.1,0.1,0,0.2,0.1,0.2c0.2,0,0.3,0.8,0.3,1c0,0,0,0,0,0c-0.2-0.1-0.5,0-0.6,0.2C4.7,5.8,4.5,5.7,4.4,5.8
		c0,0,0.1,0,0.1,0C4.9,5.8,5,5.6,5.3,5.4c0.3-0.2,0.5,0.8-0.4,0.8c0,0-0.1,0-0.1,0.1c0,0.1,0.2,0.1,0.2,0.1c0.7-0.2,0.4-0.5,0.6-0.7
		c0.3-0.1,0.5-0.1,0.8,0C6.6,5.6,6.7,5.5,6.6,5.5z M5.2,4.2c0-0.1,0.1-0.1,0.1-0.2c0-0.2-0.1-0.3-0.1-0.5c0-0.2-0.1-0.6,0.1-0.7
		c0.2-0.1,0.4-0.1,0.6,0c0.1,0.3,0.2,0.7,0.2,1C6,4,6.3,3.9,6.3,4C5.9,4,5.6,4.2,5.2,4.2z M6.2,5.3c-0.2,0-0.3,0.1-0.5,0.1
		C5.6,5.1,5.6,4.7,5.4,4.3c0.1,0,0.2-0.1,0.4-0.1c0.3,0.3-0.1,1,0.5,0.8C6.3,5.2,6.2,5.3,6.2,5.3z"/>
	<path d="M7.4,6.3C7.4,6.2,7.2,6.1,7.1,6c0,0,0,0,0,0C7,6,7,6,6.9,6c0,0,0,0,0,0C6,6.2,5.1,6.5,4.2,6.6C3.8,6.7,3.4,6.8,3,6.9
		C2.8,7,2.7,7.1,2.7,7.3c0,0.4,0.5,0.4,0.8,0.4c0.3,0,0.6,0,0.9-0.1c0.3-0.1,0.7-0.1,1-0.2c0.2-0.1,0.5-0.1,0.7-0.2
		C6.5,7,7.8,7,7.4,6.3z M7.3,6.6C6.9,6.9,6.4,6.9,6,7.1C5.2,7.2,4.4,7.5,3.6,7.6c-0.2,0-0.8,0-0.8-0.3c0-0.1,0-0.2,0.2-0.2
		c0.5-0.1,0.9-0.2,1.4-0.3c0.8-0.2,1.6-0.3,2.3-0.5c0.1,0,0.2,0,0.3,0C7.2,6.2,7.5,6.5,7.3,6.6z"/>
	<path d="M8,6.5c0,0.2-0.1,0.4-0.3,0.6c0,0-0.1,0.1-0.1,0c0,0,0-0.1,0.1-0.1c0.2-0.1,0.3-0.3,0.3-0.5C7.9,6.3,8,6.3,8,6.5z"/>
	<path class="st1" d="M3.6,7.6c-0.2,0-0.8,0-0.8-0.3c0-0.1,0-0.2,0.2-0.2c1-0.3,2-0.4,3-0.7c0.3-0.1,0.6-0.2,1-0.2
		c0.2,0,0.5,0.3,0.3,0.5C6.9,6.9,6.4,6.9,6,7.1C5.2,7.2,4.4,7.5,3.6,7.6z M3.7,7.3C4.4,7.2,5.1,7,5.8,6.8c0.3-0.1,0.5-0.2,0.8-0.2
		c0.1-0.1,0-0.1-0.1-0.1c-0.4,0-0.8,0.2-1.2,0.3C5.1,6.9,4.8,6.9,4.6,7C4.3,7.1,4,7.2,3.7,7.2c-0.1,0-0.1,0-0.1,0.1
		C3.5,7.3,3.6,7.3,3.7,7.3z"/>
	<path class="st2" d="M6.3,5.1c0,0.1,0,0.2,0,0.3c-0.2,0-0.3,0.1-0.5,0.1C5.6,5.1,5.6,4.7,5.4,4.3c0.1,0,0.2-0.1,0.4-0.1
		C6.1,4.5,5.7,5.2,6.3,5.1z"/>
	<path d="M2.7,4.6C2.6,4.5,2.5,4.4,2.6,4.3c0.1-0.1,0-0.1,0-0.2c0-0.3,0-0.5,0-0.8c-0.2,0-0.4,0-0.4-0.1c0-0.1,0-0.3,0.1-0.3
		c0.2-0.1,0.4,0,0.6-0.1c0.2-0.1,0.5-0.1,0.7-0.1C4,2.6,4.1,2.9,3.9,3c0,0-0.1,0-0.1,0.1c0,0.3,0,0.6,0,0.9C4,4.1,3.9,4.4,3.6,4.5
		c0,0.5,0.2,1,0.2,1.5C3.9,5.9,4,6,4.1,6C4,6.2,3.9,6,3.7,6C3.4,6.1,3.2,6.1,3,6.3c0,0-0.1,0-0.1,0C2.8,6.2,3.1,6.1,3.1,6
		C3,5.5,2.8,5,2.7,4.6z M3.6,3.1c-0.2,0-0.7-0.1-0.8,0.2c0,0.3-0.2,0.6,0,0.9c0.1,0.1-0.1,0.1-0.1,0.2c0.1,0.1,1.2,0,1.1-0.2
		c0,0-0.1,0-0.1-0.1C3.6,3.8,3.6,3.5,3.6,3.1z M3.1,4.5c0,0.2,0,0.3,0.1,0.4c0.1,0.2,0.2,0.6-0.1,0.6c0,0.1,0.1,0.3,0.1,0.4
		c0.2,0,0.3,0,0.4-0.1c0.1-0.3,0-0.5-0.1-0.7c0-0.2-0.1-0.4-0.1-0.7C3.4,4.5,3.3,4.5,3.1,4.5z"/>
	<path d="M2.5,7.1c0,0.1,0,0.1,0,0.1c-0.1,0-0.1,0-0.1-0.1c0-0.2,0.2-0.6,0.4-0.5C2.7,6.8,2.4,6.8,2.5,7.1z"/>
	<path d="M3.7,7.3c-0.1,0-0.1,0-0.2-0.1c0-0.1,0.1-0.1,0.1-0.1C4,7.2,4.3,7.1,4.6,7c0.3-0.1,0.5-0.2,0.8-0.2c0.4,0,0.8-0.2,1.2-0.3
		c0.1,0,0.1,0.1,0.1,0.1c-0.3,0-0.6,0.1-0.8,0.2C5.1,7,4.4,7.2,3.7,7.3z"/>
	<path d="M5.4,4C5.6,3.9,5.8,4,5.9,3.9c0,0,0,0,0,0C5.9,4,5.8,4,5.8,4C5.7,4,5.5,4.1,5.4,4z"/>
	<path class="st1" d="M6.2,4c-0.1,0-0.1,0-0.1-0.1c0-0.3-0.1-0.7-0.2-1c-0.2-0.1-0.4,0-0.6,0C5.1,2.9,5.1,3.3,5.2,3.5
		c0,0.2,0.1,0.3,0.1,0.5c0,0.1,0,0.1-0.1,0.2C5.6,4.2,5.9,4,6.2,4C6.3,4,6.2,4,6.2,4z M5.9,4C5.8,4,5.5,4.1,5.4,4
		C5.6,3.9,5.8,4,5.9,4C5.9,3.9,5.9,3.9,5.9,4C5.9,3.9,5.9,4,5.9,4z"/>
	<path class="st1" d="M3.6,4.1c0-0.3,0-0.7,0-1c-0.2,0-0.7-0.1-0.8,0.2c0,0.3-0.2,0.6,0,0.9c0.1,0.1-0.1,0.1-0.1,0.2
		c0.1,0.1,1.2,0,1.1-0.2C3.7,4.2,3.6,4.1,3.6,4.1z M2.9,4.2C2.9,4.2,2.9,4.1,2.9,4.2c0.2-0.1,0.6-0.2,0.6-0.1
		C3.3,4.2,3.1,4.2,2.9,4.2z"/>
	<path class="st2" d="M3.1,4.5c0.1,0,0.3,0,0.4,0c0,0.2,0.1,0.5,0.1,0.7c0,0.2,0.2,0.5,0.1,0.7c-0.1,0-0.3,0-0.4,0.1
		c0-0.1-0.1-0.3-0.1-0.4c0.3,0,0.3-0.4,0.1-0.6C3.2,4.8,3.1,4.7,3.1,4.5z"/>
	<path d="M3.5,4.1C3.3,4.2,3.1,4.2,2.9,4.2c0-0.1,0-0.1,0.1-0.1C3.1,4.1,3.4,4.1,3.5,4.1z"/>
</g>
</svg>
